<?xml version="1.0" encoding="UTF-8" standalone="no"?>
<!DOCTYPE svg PUBLIC "-//W3C//DTD SVG 20010904//EN"
              "http://www.w3.org/TR/2001/REC-SVG-20010904/DTD/svg10.dtd">

<svg xmlns="http://www.w3.org/2000/svg"
     width="11.7346in" height="13.1372in"
     viewBox="0 0 845 946">
  <path id="Sélection"
        fill="none" stroke="black" stroke-width="1"
        d="M 437.40,19.00
           C 437.40,19.00 449.42,49.00 449.42,49.00
             459.89,76.52 465.23,90.94 472.12,120.00
             472.12,120.00 480.08,167.00 480.08,167.00
             480.08,167.00 484.00,184.00 484.00,184.00
             484.00,184.00 506.00,169.46 506.00,169.46
             508.61,167.96 512.83,165.59 515.69,167.69
             518.63,169.85 518.01,175.71 518.00,179.00
             518.00,179.00 517.00,201.00 517.00,201.00
             529.80,187.59 536.51,177.08 547.42,163.00
             547.42,163.00 571.50,133.00 571.50,133.00
             571.50,133.00 596.12,100.00 596.12,100.00
             596.12,100.00 615.40,75.00 615.40,75.00
             620.48,68.65 623.85,63.41 632.00,61.00
             632.00,61.00 632.00,78.00 632.00,78.00
             632.00,78.00 627.16,123.00 627.16,123.00
             627.16,123.00 625.71,139.00 625.71,139.00
             621.49,173.25 610.23,216.55 592.19,246.00
             580.80,264.59 566.47,280.71 551.00,296.00
             543.12,303.79 530.33,311.56 527.00,322.00
             527.00,322.00 535.00,323.82 535.00,323.82
             546.55,325.21 563.16,319.09 574.00,315.05
             574.00,315.05 614.00,297.75 614.00,297.75
             621.18,294.14 634.68,285.84 642.00,284.19
             644.53,283.87 648.34,284.00 651.00,284.19
             648.95,291.01 635.74,311.92 631.30,320.00
             617.83,344.53 592.94,380.15 571.00,397.11
             561.47,404.48 553.49,407.28 543.00,412.26
             543.00,412.26 507.00,427.78 507.00,427.78
             507.00,427.78 471.00,434.00 471.00,434.00
             480.66,444.54 486.16,455.79 499.00,463.52
             513.34,472.15 536.43,472.86 552.00,478.00
             555.28,471.27 566.41,457.93 575.00,459.87
             578.50,460.66 582.24,464.67 585.00,467.00
             587.51,463.18 588.77,462.58 593.00,461.00
             592.03,458.40 591.36,456.83 591.10,454.00
             590.38,445.86 594.99,433.30 604.00,431.77
             612.95,430.25 618.80,438.72 624.00,439.60
             628.03,440.28 640.05,436.39 645.00,437.41
             655.18,439.49 658.38,451.56 660.78,460.00
             662.23,465.09 663.51,467.29 663.91,473.00
             664.27,478.12 662.87,490.13 661.38,495.00
             661.38,495.00 658.96,501.00 658.96,501.00
             657.49,505.31 658.43,507.94 657.26,511.00
             656.02,514.25 653.40,516.27 651.42,519.00
             647.48,524.41 647.53,527.55 640.00,530.24
             633.67,532.50 627.59,532.00 621.00,532.00
             613.49,532.00 605.34,532.48 598.00,531.06
             598.00,531.06 588.00,527.86 588.00,527.86
             583.40,527.37 581.36,531.64 576.00,532.72
             568.49,534.25 566.85,530.25 561.00,529.22
             557.37,528.59 553.48,529.65 550.04,527.83
             540.86,522.95 544.23,508.91 541.98,505.27
             541.01,503.72 539.57,503.00 537.98,502.25
             537.98,502.25 503.00,490.55 503.00,490.55
             487.72,484.47 478.20,476.62 469.00,463.00
             469.00,463.00 468.25,473.00 468.25,473.00
             468.25,473.00 476.42,488.00 476.42,488.00
             476.42,488.00 488.28,510.00 488.28,510.00
             488.28,510.00 497.00,527.00 497.00,527.00
             497.00,527.00 473.00,517.05 473.00,517.05
             470.34,516.09 464.74,514.22 462.01,514.89
             459.14,515.59 456.73,518.70 455.06,521.00
             453.28,523.44 452.41,524.95 452.11,528.00
             451.33,536.04 458.97,548.08 463.01,555.00
             472.13,570.60 480.43,586.33 487.42,603.00
             488.94,606.60 493.86,620.29 496.41,621.98
             498.16,623.13 500.97,622.99 503.00,623.00
             503.00,623.00 509.00,623.00 509.00,623.00
             518.89,623.12 529.25,627.07 535.47,635.00
             542.69,644.20 542.80,650.52 545.34,661.00
             545.34,661.00 548.24,670.00 548.24,670.00
             548.24,670.00 550.00,680.00 550.00,680.00
             562.71,678.77 570.32,694.98 576.33,704.00
             576.33,704.00 583.45,715.00 583.45,715.00
             584.93,717.95 587.15,727.48 585.01,730.28
             584.11,731.46 583.21,731.51 582.00,732.00
             588.20,741.80 589.99,737.84 600.00,741.86
             609.83,745.82 632.25,755.87 640.00,762.00
             643.11,764.47 648.68,768.54 650.30,772.09
             650.30,772.09 651.88,778.00 651.88,778.00
             654.25,788.44 651.09,791.44 645.41,799.99
             641.29,806.18 632.79,812.43 627.00,817.42
             627.00,817.42 598.00,842.58 598.00,842.58
             598.00,842.58 584.00,855.04 584.00,855.04
             581.95,856.98 578.79,860.60 576.00,861.19
             572.80,861.87 566.96,857.81 564.00,856.25
             564.00,856.25 534.00,840.00 534.00,840.00
             534.00,840.00 536.00,845.00 536.00,845.00
             533.26,844.19 532.35,843.96 530.21,841.85
             530.21,841.85 525.63,836.21 525.63,836.21
             520.57,830.89 507.14,822.60 500.41,829.31
             498.78,830.95 496.36,836.55 495.00,839.00
             492.23,834.20 493.95,829.32 494.00,824.00
             484.93,825.48 485.31,817.08 478.00,817.76
             475.25,818.01 470.57,821.39 468.00,822.83
             468.00,822.83 447.00,833.00 447.00,833.00
             450.92,826.41 459.32,824.17 464.83,819.47
             469.22,815.72 470.33,811.89 476.00,809.00
             474.54,804.59 472.52,800.01 477.00,797.00
             477.00,797.00 477.00,795.00 477.00,795.00
             472.13,794.02 465.88,793.42 463.00,789.00
             463.00,789.00 479.00,787.00 479.00,787.00
             479.00,787.00 478.00,784.00 478.00,784.00
             478.00,784.00 484.00,783.00 484.00,783.00
             484.31,780.71 485.27,776.64 484.80,774.58
             483.31,767.93 471.75,753.81 467.37,748.00
             454.10,730.38 434.00,704.08 435.04,681.00
             435.26,676.10 439.33,666.96 442.55,663.32
             442.55,663.32 449.61,656.91 449.61,656.91
             449.61,656.91 456.93,645.00 456.93,645.00
             459.24,641.83 465.38,636.26 465.89,633.00
             466.22,630.85 464.40,626.20 463.67,624.00
             455.29,598.86 452.09,593.94 440.26,571.00
             438.41,567.43 432.88,553.81 427.98,555.20
             425.67,555.85 423.40,559.17 422.00,561.00
             417.44,559.32 415.02,557.61 411.01,555.00
             409.57,554.06 407.39,552.28 405.58,552.64
             399.79,553.80 394.19,568.01 391.76,573.00
             381.53,593.93 372.13,615.61 365.58,638.00
             365.58,638.00 358.00,662.00 358.00,662.00
             357.17,664.49 355.09,669.22 356.20,671.68
             357.12,673.71 363.79,678.30 365.91,680.29
             371.22,685.27 374.95,691.69 375.70,699.00
             376.60,707.78 369.15,714.60 369.14,719.00
             369.13,721.44 372.29,726.91 373.23,730.00
             374.70,734.85 374.34,740.02 373.83,745.00
             372.07,762.44 363.40,778.10 354.85,793.00
             349.39,802.52 336.95,822.34 329.91,830.00
             329.91,830.00 308.17,853.00 308.17,853.00
             294.96,867.60 281.33,883.31 263.00,891.49
             246.15,899.00 222.78,901.61 213.19,882.00
             210.01,875.49 208.92,863.28 209.00,856.00
             209.00,856.00 211.46,831.00 211.46,831.00
             211.46,831.00 220.46,798.00 220.46,798.00
             222.80,792.02 233.00,773.73 236.69,768.00
             245.59,754.18 247.49,755.99 253.21,748.00
             257.96,741.38 259.69,734.09 262.07,730.00
             264.40,725.99 268.75,722.27 270.28,718.00
             270.28,718.00 271.67,706.00 271.67,706.00
             273.43,697.76 276.26,696.30 277.49,692.00
             278.24,689.42 277.82,684.26 279.77,678.00
             284.00,664.45 293.13,658.02 307.00,658.00
             314.71,657.99 316.41,657.99 324.00,660.00
             333.04,632.94 346.48,601.53 359.25,576.00
             359.25,576.00 372.25,550.00 372.25,550.00
             373.79,546.90 377.90,539.21 377.93,536.01
             377.96,530.90 365.16,524.09 361.00,521.29
             359.22,520.09 357.21,518.52 355.00,518.36
             352.45,518.17 348.31,520.60 346.00,521.75
             346.00,521.75 327.00,531.00 327.00,531.00
             327.00,531.00 337.57,511.00 337.57,511.00
             337.57,511.00 351.91,486.00 351.91,486.00
             351.91,486.00 365.49,465.00 365.49,465.00
             365.49,465.00 366.00,458.00 366.00,458.00
             366.00,458.00 366.00,449.00 366.00,449.00
             351.00,457.03 343.17,465.18 326.00,470.28
             314.14,473.80 308.80,473.14 297.00,473.00
             297.00,473.00 251.00,473.00 251.00,473.00
             250.93,480.36 249.99,495.08 240.00,495.64
             235.93,495.87 233.02,492.35 229.00,492.18
             225.03,491.57 221.04,494.60 216.00,492.18
             210.58,490.02 210.22,485.50 205.90,484.31
             205.90,484.31 196.00,483.71 196.00,483.71
             186.55,482.55 169.01,478.41 162.17,471.81
             152.25,462.25 152.36,457.84 148.96,446.00
             147.73,441.71 146.06,437.55 146.08,433.00
             146.10,428.02 147.74,426.20 148.63,422.00
             152.03,405.78 150.72,403.88 162.28,390.00
             168.14,382.98 177.86,371.46 188.00,372.91
             194.73,373.87 204.55,380.98 208.00,381.43
             212.00,381.97 215.09,378.02 222.00,378.08
             232.81,378.17 240.91,392.29 240.85,402.00
             240.79,412.30 228.94,407.79 228.12,416.02
             227.99,417.30 228.19,418.73 228.88,419.84
             232.86,426.17 238.69,415.61 245.82,421.43
             250.01,424.86 251.58,429.90 252.41,435.00
             252.89,437.96 252.72,442.13 255.31,444.02
             257.94,445.92 272.94,448.08 277.00,448.75
             291.18,451.12 291.77,451.07 306.00,451.00
             321.91,450.92 335.63,442.70 349.00,435.00
             342.10,433.32 339.83,434.57 334.00,433.54
             325.99,432.12 318.36,429.07 311.00,425.69
             298.07,419.76 290.84,414.13 280.00,405.08
             255.90,384.96 240.72,364.94 226.75,337.00
             223.12,329.74 213.30,310.94 212.00,303.90
             212.00,303.90 220.00,303.90 220.00,303.90
             225.35,304.31 239.67,311.44 246.00,313.66
             260.60,318.77 274.85,322.36 290.00,325.40
             296.15,326.63 304.83,328.89 311.00,328.24
             311.00,328.24 316.00,328.24 316.00,328.24
             315.10,323.60 311.29,311.89 309.34,308.00
             309.34,308.00 302.91,298.00 302.91,298.00
             293.90,283.46 283.91,268.94 277.45,253.00
             268.69,231.37 261.42,190.61 259.17,167.00
             259.17,167.00 257.91,146.00 257.91,146.00
             257.91,146.00 256.00,125.00 256.00,125.00
             256.00,125.00 256.00,116.00 256.00,116.00
             255.13,104.50 254.43,100.88 256.00,89.00
             258.61,89.56 259.73,89.73 261.96,91.43
             266.01,94.52 278.87,112.74 282.73,118.00
             282.73,118.00 315.42,161.00 315.42,161.00
             315.42,161.00 335.00,187.00 335.00,187.00
             338.60,192.37 349.16,209.29 353.09,212.61
             355.21,214.40 358.32,215.88 361.00,216.60
             368.71,218.65 368.77,211.62 369.75,206.00
             369.75,206.00 376.92,167.00 376.92,167.00
             376.92,167.00 382.58,141.00 382.58,141.00
             389.73,108.59 399.55,77.16 410.95,46.00
             410.95,46.00 428.00,1.00 428.00,1.00
             432.78,5.79 434.93,12.82 437.40,19.00 Z
           M 481.00,816.00
           C 481.00,816.00 482.00,817.00 482.00,817.00
             482.00,817.00 482.00,816.00 482.00,816.00
             482.00,816.00 481.00,816.00 481.00,816.00 Z" />
</svg>
