<?xml version="1.0" encoding="UTF-8" standalone="no"?>
<!DOCTYPE svg PUBLIC "-//W3C//DTD SVG 20010904//EN"
              "http://www.w3.org/TR/2001/REC-SVG-20010904/DTD/svg10.dtd">

<svg xmlns="http://www.w3.org/2000/svg"
     width="5.86385in" height="6.92622in"
     viewBox="0 0 563 665">
  <path id="pixel path"
        fill="none" stroke="black" stroke-width="1"
        d="M 131.00,71.00
           C 131.00,71.00 131.00,111.00 131.00,111.00
             131.00,111.00 151.00,111.00 151.00,111.00
             151.00,111.00 151.00,211.00 151.00,211.00
             151.00,211.00 171.00,211.00 171.00,211.00
             171.00,211.00 171.00,291.00 171.00,291.00
             171.00,291.00 231.00,291.00 231.00,291.00
             231.00,291.00 231.00,271.00 231.00,271.00
             231.00,271.00 211.00,271.00 211.00,271.00
             211.00,271.00 211.00,211.00 211.00,211.00
             211.00,211.00 191.00,211.00 191.00,211.00
             191.00,211.00 191.00,191.00 191.00,191.00
             191.00,191.00 171.00,191.00 171.00,191.00
             171.00,191.00 171.00,131.00 171.00,131.00
             171.00,131.00 191.00,131.00 191.00,131.00
             191.00,131.00 191.00,111.00 191.00,111.00
             191.00,111.00 211.00,111.00 211.00,111.00
             211.00,111.00 211.00,71.00 211.00,71.00
             211.00,71.00 371.00,71.00 371.00,71.00
             371.00,71.00 371.00,91.00 371.00,91.00
             371.00,91.00 391.00,91.00 391.00,91.00
             391.00,91.00 391.00,111.00 391.00,111.00
             391.00,111.00 411.00,111.00 411.00,111.00
             411.00,111.00 411.00,191.00 411.00,191.00
             411.00,191.00 431.00,191.00 431.00,191.00
             431.00,191.00 431.00,231.00 431.00,231.00
             431.00,231.00 411.00,231.00 411.00,231.00
             411.00,231.00 411.00,291.00 411.00,291.00
             411.00,291.00 431.00,291.00 431.00,291.00
             431.00,291.00 431.00,311.00 431.00,311.00
             431.00,311.00 451.00,311.00 451.00,311.00
             451.00,311.00 451.00,331.00 451.00,331.00
             451.00,331.00 471.00,331.00 471.00,331.00
             471.00,331.00 471.00,351.00 471.00,351.00
             471.00,351.00 491.00,351.00 491.00,351.00
             491.00,351.00 491.00,371.00 491.00,371.00
             491.00,371.00 511.00,371.00 511.00,371.00
             511.00,371.00 511.00,511.00 511.00,511.00
             511.00,511.00 491.00,511.00 491.00,511.00
             491.00,511.00 491.00,551.00 491.00,551.00
             491.00,551.00 471.00,551.00 471.00,551.00
             471.00,551.00 471.00,591.00 471.00,591.00
             471.00,591.00 451.00,591.00 451.00,591.00
             451.00,591.00 451.00,611.00 451.00,611.00
             451.00,611.00 431.00,611.00 431.00,611.00
             431.00,611.00 431.00,646.00 431.00,646.00
             431.00,646.00 191.00,646.00 191.00,646.00
             191.00,646.00 191.00,631.00 191.00,631.00
             191.00,631.00 171.00,631.00 171.00,631.00
             171.00,631.00 171.00,571.00 171.00,571.00
             171.00,571.00 151.00,571.00 151.00,571.00
             151.00,571.00 151.00,591.00 151.00,591.00
             151.00,591.00 131.00,591.00 131.00,591.00
             131.00,591.00 131.00,611.00 131.00,611.00
             131.00,611.00 71.00,611.00 71.00,611.00
             71.00,611.00 71.00,631.00 71.00,631.00
             71.00,631.00 31.00,631.00 31.00,631.00
             31.00,631.00 31.00,611.00 31.00,611.00
             31.00,611.00 11.00,611.00 11.00,611.00
             11.00,611.00 11.00,511.00 11.00,511.00
             11.00,511.00 31.00,511.00 31.00,511.00
             31.00,511.00 31.00,491.00 31.00,491.00
             31.00,491.00 51.00,491.00 51.00,491.00
             51.00,491.00 51.00,431.00 51.00,431.00
             51.00,431.00 71.00,431.00 71.00,431.00
             71.00,431.00 71.00,411.00 71.00,411.00
             71.00,411.00 91.00,411.00 91.00,411.00
             91.00,411.00 91.00,371.00 91.00,371.00
             91.00,371.00 111.00,371.00 111.00,371.00
             111.00,371.00 111.00,331.00 111.00,331.00
             111.00,331.00 131.00,331.00 131.00,331.00
             131.00,331.00 131.00,231.00 131.00,231.00
             131.00,231.00 111.00,231.00 111.00,231.00
             111.00,231.00 111.00,151.00 111.00,151.00
             111.00,151.00 91.00,151.00 91.00,151.00
             91.00,151.00 91.00,71.00 91.00,71.00
             91.00,71.00 131.00,71.00 131.00,71.00 Z" />
</svg>
