<?xml version="1.0" encoding="UTF-8" standalone="no"?>
<!DOCTYPE svg PUBLIC "-//W3C//DTD SVG 20010904//EN"
              "http://www.w3.org/TR/2001/REC-SVG-20010904/DTD/svg10.dtd">

<svg xmlns="http://www.w3.org/2000/svg"
     width="14.2222in" height="10.6667in"
     viewBox="0 0 1024 768">
  <path id="path"
        fill="none" stroke="black" stroke-width="1"
        d="M 270.00,30.00
           C 270.00,30.00 270.00,45.00 270.00,45.00
             270.00,45.00 285.00,45.00 285.00,45.00
             285.00,45.00 285.00,30.00 285.00,30.00
             285.00,30.00 300.00,30.00 300.00,30.00
             300.00,30.00 300.00,45.00 300.00,45.00
             300.00,45.00 315.00,45.00 315.00,45.00
             315.00,45.00 315.00,30.00 315.00,30.00
             315.00,30.00 330.00,30.00 330.00,30.00
             330.00,30.00 330.00,60.00 330.00,60.00
             330.00,60.00 345.00,60.00 345.00,60.00
             345.00,60.00 345.00,75.00 345.00,75.00
             345.00,75.00 375.00,75.00 375.00,75.00
             375.00,75.00 375.00,90.00 375.00,90.00
             375.00,90.00 390.00,90.00 390.00,90.00
             390.00,90.00 390.00,120.00 390.00,120.00
             390.00,120.00 375.00,120.00 375.00,120.00
             375.00,120.00 375.00,150.00 375.00,150.00
             375.00,150.00 405.00,150.00 405.00,150.00
             405.00,150.00 405.00,135.00 405.00,135.00
             405.00,135.00 480.00,135.00 480.00,135.00
             480.00,135.00 480.00,150.00 480.00,150.00
             480.00,150.00 495.00,150.00 495.00,150.00
             495.00,150.00 495.00,165.00 495.00,165.00
             495.00,165.00 510.00,165.00 510.00,165.00
             510.00,165.00 510.00,225.00 510.00,225.00
             510.00,225.00 495.00,225.00 495.00,225.00
             495.00,225.00 495.00,240.00 495.00,240.00
             495.00,240.00 480.00,240.00 480.00,240.00
             480.00,240.00 480.00,255.00 480.00,255.00
             480.00,255.00 465.00,255.00 465.00,255.00
             465.00,255.00 465.00,270.00 465.00,270.00
             465.00,270.00 450.00,270.00 450.00,270.00
             450.00,270.00 450.00,285.00 450.00,285.00
             450.00,285.00 420.00,285.00 420.00,285.00
             420.00,285.00 420.00,270.00 420.00,270.00
             420.00,270.00 405.00,270.00 405.00,270.00
             405.00,270.00 405.00,285.00 405.00,285.00
             405.00,285.00 390.00,285.00 390.00,285.00
             390.00,285.00 390.00,300.00 390.00,300.00
             390.00,300.00 375.00,300.00 375.00,300.00
             375.00,300.00 375.00,375.00 375.00,375.00
             375.00,375.00 390.00,375.00 390.00,375.00
             390.00,375.00 390.00,420.00 390.00,420.00
             390.00,420.00 405.00,420.00 405.00,420.00
             405.00,420.00 405.00,480.00 405.00,480.00
             405.00,480.00 420.00,480.00 420.00,480.00
             420.00,480.00 420.00,540.00 420.00,540.00
             420.00,540.00 435.00,540.00 435.00,540.00
             435.00,540.00 435.00,585.00 435.00,585.00
             435.00,585.00 450.00,585.00 450.00,585.00
             450.00,585.00 450.00,615.00 450.00,615.00
             450.00,615.00 435.00,615.00 435.00,615.00
             435.00,615.00 435.00,630.00 435.00,630.00
             435.00,630.00 390.00,630.00 390.00,630.00
             390.00,630.00 390.00,645.00 390.00,645.00
             390.00,645.00 180.00,645.00 180.00,645.00
             180.00,645.00 180.00,630.00 180.00,630.00
             180.00,630.00 135.00,630.00 135.00,630.00
             135.00,630.00 135.00,615.00 135.00,615.00
             135.00,615.00 120.00,615.00 120.00,615.00
             120.00,615.00 120.00,600.00 120.00,600.00
             120.00,600.00 135.00,600.00 135.00,600.00
             135.00,600.00 135.00,555.00 135.00,555.00
             135.00,555.00 150.00,555.00 150.00,555.00
             150.00,555.00 150.00,480.00 150.00,480.00
             150.00,480.00 165.00,480.00 165.00,480.00
             165.00,480.00 165.00,420.00 165.00,420.00
             165.00,420.00 180.00,420.00 180.00,420.00
             180.00,420.00 180.00,360.00 180.00,360.00
             180.00,360.00 195.00,360.00 195.00,360.00
             195.00,360.00 195.00,330.00 195.00,330.00
             195.00,330.00 180.00,330.00 180.00,330.00
             180.00,330.00 180.00,300.00 180.00,300.00
             180.00,300.00 195.00,300.00 195.00,300.00
             195.00,300.00 195.00,270.00 195.00,270.00
             195.00,270.00 180.00,270.00 180.00,270.00
             180.00,270.00 180.00,240.00 180.00,240.00
             180.00,240.00 195.00,240.00 195.00,240.00
             195.00,240.00 195.00,225.00 195.00,225.00
             195.00,225.00 210.00,225.00 210.00,225.00
             210.00,225.00 210.00,165.00 210.00,165.00
             210.00,165.00 225.00,165.00 225.00,165.00
             225.00,165.00 225.00,135.00 225.00,135.00
             225.00,135.00 210.00,135.00 210.00,135.00
             210.00,135.00 210.00,90.00 210.00,90.00
             210.00,90.00 240.00,90.00 240.00,90.00
             240.00,90.00 240.00,75.00 240.00,75.00
             240.00,75.00 255.00,75.00 255.00,75.00
             255.00,75.00 255.00,30.00 255.00,30.00
             255.00,30.00 270.00,30.00 270.00,30.00 Z
           M 360.00,165.00
           C 360.00,165.00 360.00,180.00 360.00,180.00
             360.00,180.00 375.00,180.00 375.00,180.00
             375.00,180.00 375.00,165.00 375.00,165.00
             375.00,165.00 360.00,165.00 360.00,165.00 Z" />
</svg>
