<?xml version="1.0" encoding="UTF-8" ?>
<!DOCTYPE svg PUBLIC "-//W3C//DTD SVG 1.1//EN" "http://www.w3.org/Graphics/SVG/1.1/DTD/svg11.dtd">
<svg width="224pt" height="256pt" viewBox="0 0 224 256" version="1.1" xmlns="http://www.w3.org/2000/svg">
<path fill="#000000" opacity="1.00" d=" M 64.00 0.00 L 80.00 0.00 C 79.99 16.00 79.99 32.00 80.00 48.00 C 85.33 48.00 90.67 48.00 96.00 48.00 C 96.00 53.33 96.00 58.67 96.00 64.00 C 106.67 64.00 117.33 64.00 128.00 64.00 C 128.00 58.67 128.00 53.33 128.00 48.00 C 144.00 47.99 160.00 48.00 176.00 48.00 C 176.00 42.67 176.00 37.33 176.00 32.00 C 181.33 32.00 186.66 32.00 192.00 32.00 C 192.00 37.33 192.00 42.67 192.00 48.00 C 197.33 48.00 202.66 48.00 208.00 48.00 C 208.00 53.33 208.00 58.67 208.00 64.00 C 213.33 64.00 218.66 64.00 224.00 64.00 L 224.00 80.00 C 218.66 80.00 213.33 80.00 208.00 80.00 C 208.00 85.33 208.00 90.66 208.00 96.00 C 197.33 96.00 186.66 96.00 175.99 96.00 C 175.99 106.67 176.00 117.33 176.00 128.00 C 181.33 128.00 186.66 128.00 192.00 128.00 C 192.00 133.33 192.00 138.66 192.00 144.00 C 186.66 144.00 181.33 144.00 176.00 144.00 C 176.00 154.67 176.00 165.33 176.00 176.00 C 170.66 176.00 165.33 176.00 160.00 176.00 C 160.00 181.33 160.00 186.66 160.00 192.00 C 154.66 192.00 149.33 192.00 144.00 192.00 C 144.00 197.33 144.00 202.66 144.00 208.00 C 133.33 208.00 122.67 208.00 112.00 208.00 C 112.00 213.33 112.00 218.66 112.00 224.00 C 106.66 224.00 101.33 224.00 96.00 224.00 C 96.00 229.33 96.00 234.66 96.00 240.00 C 90.66 240.00 85.33 240.00 80.00 240.00 C 80.00 245.33 80.00 250.66 80.00 256.00 L 64.00 256.00 C 64.00 240.00 64.01 224.00 64.00 208.00 C 58.66 208.00 53.33 208.00 48.00 208.00 C 48.00 197.33 48.00 186.67 48.00 176.00 C 42.67 176.00 37.33 176.00 32.00 176.00 C 32.00 170.66 32.00 165.33 32.00 160.00 C 21.33 160.00 10.67 160.00 0.00 160.00 L 0.00 144.00 C 5.33 144.00 10.67 144.00 16.00 144.00 C 16.00 138.66 16.00 133.33 16.00 128.00 C 10.67 128.00 5.33 128.00 -0.00 128.00 L 0.00 112.00 C 5.33 112.00 10.67 112.00 16.00 112.00 C 16.00 106.66 16.00 101.33 16.00 96.00 C 21.33 96.00 26.67 96.00 32.00 96.00 C 32.00 80.00 31.99 64.00 32.00 48.00 C 37.33 48.00 42.67 48.00 48.00 48.00 C 48.00 37.33 48.00 26.67 48.00 16.00 C 53.33 16.00 58.67 16.00 64.00 16.00 C 64.00 10.67 64.00 5.33 64.00 0.00 Z" />
</svg>
